<svg width="114" height="118" viewBox="0 0 114 118" fill="none" xmlns="http://www.w3.org/2000/svg">
<path d="M38.6568 18.3515C36.9128 18.3515 35.4998 19.7606 35.4998 21.4999C35.4998 23.2392 36.9128 24.6482 38.6568 24.6482C40.4008 24.6482 41.8137 23.2392 41.8137 21.4999C41.8137 19.7606 40.4008 18.3515 38.6568 18.3515ZM38.6568 30.8569C33.4799 30.8569 29.2744 26.6628 29.2744 21.4999C29.2744 16.337 33.4799 12.1428 38.6568 12.1428C43.8337 12.1428 48.0392 16.337 48.0392 21.4999C48.0392 26.6628 43.8337 30.8569 38.6568 30.8569Z" fill="#1A1959"/>
<path d="M101.704 81H8.09729C7.02059 81 6.02077 80.4402 5.46045 79.5293C4.90013 78.6183 4.8452 77.4768 5.32861 76.522L14.6893 57.8195C15.2167 56.7659 16.2824 56.1073 17.458 56.1073H28.0272L36.5309 39.1171C37.0583 38.0744 38.1239 37.4049 39.2994 37.4049H49.8688L58.3725 20.4146C58.8998 19.361 59.9654 18.7025 61.141 18.7025H71.7102L80.2141 1.71219C80.7414 0.658534 81.807 0 82.9826 0H105V6.19026H84.9053L76.4016 23.1805C75.8742 24.2232 74.8085 24.8927 73.6329 24.8927H63.0637L54.56 41.8829C54.0326 42.9366 52.967 43.5951 51.7914 43.5951H41.2221L32.7184 60.5854C32.191 61.639 31.1254 62.2976 29.9499 62.2976H19.3807L13.1182 74.8098H98.6168V15.5634H104.813V77.9049C104.813 79.6171 103.429 81 101.715 81" fill="#1A1959"/>
<path d="M7.712 116V96.96H0.512V93.12H19.424V96.96H12.256V116H7.712ZM22.0167 116V93.12H32.2247C35.1047 93.12 37.2488 93.7387 38.6567 94.976C40.0861 96.192 40.8008 97.9413 40.8008 100.224C40.8008 102.528 40.0861 104.288 38.6567 105.504C37.2488 106.72 35.1047 107.328 32.2247 107.328H26.5927V116H22.0167ZM26.5927 103.616H32.0007C33.3448 103.616 34.3688 103.36 35.0728 102.848C35.7767 102.336 36.1287 101.483 36.1287 100.288C36.1287 99.1147 35.7767 98.272 35.0728 97.76C34.3688 97.2267 33.3448 96.96 32.0007 96.96H26.5927V103.616ZM36.1927 116L31.0407 106.24H35.8407L41.4727 116H36.1927ZM42.4905 116L50.7785 93.12H56.8905L65.1465 116H60.2505L58.3945 110.72H49.2425L47.3865 116H42.4905ZM50.4585 106.976H57.1785L53.8185 97.312L50.4585 106.976ZM64.6887 104.576C64.6887 102.763 64.9447 101.131 65.4567 99.68C65.9901 98.208 66.7367 96.96 67.6967 95.936C68.6781 94.8907 69.8621 94.0907 71.2487 93.536C72.6354 92.9813 74.1821 92.704 75.8887 92.704C77.3181 92.704 78.6407 92.9067 79.8567 93.312C81.0727 93.696 82.1394 94.272 83.0567 95.04C83.9954 95.808 84.7741 96.7573 85.3927 97.888C86.0114 98.9973 86.4381 100.277 86.6727 101.728H81.9047C81.5634 100.085 80.8594 98.816 79.7927 97.92C78.7474 97.0027 77.4247 96.544 75.8247 96.544C74.8434 96.544 73.9581 96.7253 73.1687 97.088C72.3794 97.4507 71.7074 97.984 71.1527 98.688C70.5981 99.3707 70.1607 100.213 69.8407 101.216C69.5421 102.197 69.3927 103.317 69.3927 104.576C69.3927 105.813 69.5421 106.933 69.8407 107.936C70.1607 108.917 70.5981 109.76 71.1527 110.464C71.7074 111.147 72.3794 111.669 73.1687 112.032C73.9794 112.395 74.8861 112.576 75.8887 112.576C77.5527 112.576 78.9074 112.096 79.9527 111.136C81.0194 110.155 81.6914 108.768 81.9687 106.976H86.7687C86.5554 108.469 86.1394 109.803 85.5208 110.976C84.9234 112.149 84.1447 113.141 83.1847 113.952C82.2461 114.741 81.1581 115.349 79.9207 115.776C78.6834 116.203 77.3181 116.416 75.8247 116.416C74.1394 116.416 72.6034 116.139 71.2167 115.584C69.8514 115.029 68.6887 114.24 67.7287 113.216C66.7687 112.192 66.0221 110.955 65.4887 109.504C64.9554 108.032 64.6887 106.389 64.6887 104.576ZM89.6555 116V93.12H105.943V96.96H94.2315V102.624H105.367V106.4H94.2315V112.16H106.071V116H89.6555Z" fill="#2A83B5"/>
</svg>
