<svg width="296" height="49" viewBox="0 0 296 49" fill="none" xmlns="http://www.w3.org/2000/svg">
<path d="M20 11.9812C18.8847 11.9812 17.9811 12.8847 17.9811 14C17.9811 15.1153 18.8847 16.0188 20 16.0188C21.1153 16.0188 22.0188 15.1153 22.0188 14C22.0188 12.8847 21.1153 11.9812 20 11.9812ZM20 20C16.6894 20 14 17.3106 14 14C14 10.6894 16.6894 8 20 8C23.3106 8 26 10.6894 26 14C26 17.3106 23.3106 20 20 20Z" fill="#1A1959"/>
<path d="M58.0224 49H1.85837C1.21235 49 0.612463 48.6614 0.276269 48.1103C-0.0599238 47.5592 -0.0928807 46.8687 0.197168 46.2911L5.81359 34.9772C6.13 34.3398 6.76944 33.9415 7.47479 33.9415H13.8163L18.9185 23.6634C19.235 23.0327 19.8743 22.6277 20.5797 22.6277H26.9213L32.0235 12.3496C32.3399 11.7122 32.9793 11.3138 33.6846 11.3138H40.0261L45.1284 1.03577C45.4449 0.398372 46.0842 0 46.7896 0H60V3.74473H47.9432L42.8409 14.0228C42.5245 14.6535 41.8851 15.0585 41.1797 15.0585H34.8382L29.736 25.3366C29.4196 25.974 28.7802 26.3724 28.0749 26.3724H21.7333L16.631 36.6504C16.3146 37.2878 15.6753 37.6862 14.9699 37.6862H8.62839L4.87089 45.2553H56.1701V9.4149H59.8879V47.1277C59.8879 48.1634 59.0573 49 58.029 49" fill="#1A1959"/>
<path d="M83.872 47V7.64H69.152V1.24H105.888V7.64H91.168V47H83.872ZM109.559 47V1.24H129.591C135.052 1.24 139.148 2.456 141.879 4.888C144.609 7.27733 145.975 10.6693 145.975 15.064C145.975 19.4587 144.609 22.8507 141.879 25.24C139.148 27.5867 135.052 28.76 129.591 28.76H116.855V47H109.559ZM116.855 22.488H129.143C132.215 22.488 134.519 21.9333 136.055 20.824C137.633 19.672 138.423 17.7733 138.423 15.128C138.423 12.4827 137.633 10.584 136.055 9.432C134.519 8.23733 132.215 7.64 129.143 7.64H116.855V22.488ZM138.807 47L127.927 27.096H135.735L147.319 47H138.807ZM147.768 47L164.92 1.24H174.648L191.736 47H183.8L179.512 35.16H159.992L155.704 47H147.768ZM162.168 28.888H177.336L169.784 7.832L162.168 28.888ZM189.185 24.152C189.185 20.5253 189.697 17.2613 190.721 14.36C191.745 11.416 193.195 8.92 195.073 6.872C196.993 4.824 199.297 3.24533 201.985 2.136C204.673 0.983997 207.681 0.407997 211.009 0.407997C213.825 0.407997 216.406 0.81333 218.753 1.624C221.142 2.392 223.233 3.52266 225.025 5.016C226.817 6.50933 228.331 8.344 229.569 10.52C230.806 12.696 231.681 15.1707 232.193 17.944H224.449C223.638 14.4027 222.059 11.672 219.713 9.752C217.366 7.78933 214.422 6.808 210.881 6.808C208.79 6.808 206.87 7.21333 205.121 8.024C203.371 8.83466 201.878 9.98667 200.641 11.48C199.403 12.9733 198.443 14.7867 197.761 16.92C197.078 19.0107 196.737 21.4213 196.737 24.152C196.737 26.7973 197.078 29.1867 197.761 31.32C198.443 33.4533 199.403 35.2667 200.641 36.76C201.878 38.2533 203.371 39.4053 205.121 40.216C206.87 41.0267 208.833 41.432 211.009 41.432C214.678 41.432 217.686 40.3867 220.033 38.296C222.422 36.1627 223.958 33.1547 224.641 29.272H232.385C231.958 32.216 231.147 34.84 229.953 37.144C228.758 39.4053 227.222 41.3253 225.345 42.904C223.51 44.4827 221.377 45.6987 218.945 46.552C216.513 47.4053 213.846 47.832 210.945 47.832C207.659 47.832 204.673 47.2773 201.985 46.168C199.297 45.0587 196.993 43.48 195.073 41.432C193.195 39.384 191.745 36.9093 190.721 34.008C189.697 31.1067 189.185 27.8213 189.185 24.152ZM236.701 47V1.24H268.189V7.64H243.997V20.888H267.101V27.16H243.997V40.6H268.509V47H236.701Z" fill="#2A83B5"/>
</svg>
